<svg xmlns="http://www.w3.org/2000/svg" width="60" height="65" fill="none" viewBox="0 0 60 65"><path fill="#F6D809" d="M20.7461 9.98169C21.5734 8.30111 23.7105 7.76365 25.2344 8.85292V8.85292L27.4961 10.3176C30.1617 12.0439 32.594 14.1062 34.7329 16.4536L36.1026 17.9569C37.3924 19.3724 38.5703 20.8858 39.6258 22.4837L44.8216 30.3494L47.6783 33.9259C47.8282 34.1135 47.9562 34.3176 48.06 34.5342V34.5342C48.8693 36.2233 48.0445 38.2422 46.2838 38.8813L5.94129 53.5254C5.28577 53.7634 4.57295 53.7942 3.89934 53.6137V53.6137C2.37394 53.205 1.33015 51.8005 1.37863 50.2221L1.38398 50.0479C1.39987 49.5308 1.52631 49.0231 1.75481 48.5589L20.7461 9.98169Z"/><circle cx="17.038" cy="31.354" r="4.185" fill="#ED5332" transform="rotate(15 17.0375 31.354)"/><circle cx="29.974" cy="34.82" r="4.185" fill="#ED5332" transform="rotate(15 29.974 34.8203)"/><circle cx="25.376" cy="24.489" r="2.93" fill="#ED5332" transform="rotate(15 25.3763 24.4894)"/><circle cx="38.601" cy="34.965" r="2.093" fill="#ED5332" transform="rotate(15 38.6008 34.9654)"/><ellipse cx="35.468" cy="22.349" fill="#ED5332" rx="6.916" ry="2.394" transform="rotate(48.1205 35.4683 22.3493)"/><ellipse cx="26.878" cy="13.982" fill="#ED5332" rx="6.916" ry="2.394" transform="rotate(37.8517 26.8777 13.9816)"/><ellipse cx="42.636" cy="33.062" fill="#ED5332" rx="7.132" ry="1.536" transform="rotate(56.8977 42.6357 33.0622)"/><circle cx="20.019" cy="41.252" r="2.93" fill="#ED5332" transform="rotate(15 20.0188 41.2517)"/><circle cx="9.962" cy="41.59" r="2.93" fill="#ED5332" transform="rotate(15 9.96219 41.5901)"/><path fill="#E0A764" d="M18.8907 5.03596C19.1398 4.10615 19.7719 3.32577 20.6297 2.88895V2.88895C21.3772 2.50828 22.2392 2.41778 23.0494 2.63489L23.9062 2.86445C24.247 2.95578 24.5786 3.07851 24.8968 3.23108L25.9775 3.74935C26.9839 4.23193 27.9447 4.80408 28.8485 5.4589L30.8511 6.90983C32.72 8.26391 34.4844 9.75663 36.1294 11.3754L38.8016 14.0048L41.2714 16.7703C42.8447 18.5318 44.2912 20.4027 45.6 22.3687L47.496 25.2168L52.5395 34.4797C52.9432 35.221 53.1193 36.0649 53.0458 36.9057L53.0326 37.0574C52.915 38.4039 52.127 39.6006 50.9365 40.2407V40.2407C49.4903 41.0182 47.6979 40.8203 46.4404 39.7644V39.7644C46.0785 39.4606 45.7676 39.0917 45.5313 38.6824L41.4781 31.6619C39.2981 27.8862 36.6337 24.4118 33.5527 21.3271L28.9888 16.758C27.8409 15.6087 26.5714 14.5876 25.2028 13.7126L20.9091 10.9674C20.1056 10.4537 19.4659 9.72063 19.0658 8.85491L19.0158 8.74671C18.5579 7.75606 18.4619 6.63624 18.7443 5.58208L18.8907 5.03596Z"/><path fill="#FAEACE" d="M37.1745 17.6517C37.2317 17.4385 37.3762 17.2593 37.5725 17.1583V17.1583C37.7627 17.0604 37.9847 17.0447 38.1869 17.1147L38.8498 17.3446C39.0879 17.4271 39.3117 17.5463 39.513 17.6978L40.7311 18.6147L41.9698 19.8424L42.0144 19.8928C42.7595 20.7335 43.4439 21.6261 44.0624 22.5637V22.5637L45.2742 24.8117C45.3717 24.9926 45.414 25.1982 45.3959 25.4029L45.392 25.4459C45.3633 25.7695 45.1744 26.0573 44.8889 26.2123V26.2123C44.5377 26.4031 44.1042 26.3577 43.7989 26.0997V26.0997C43.7121 26.0263 43.6384 25.938 43.582 25.8393L42.6071 24.1342C42.0827 23.217 41.4404 22.3726 40.6965 21.6224L39.6004 20.5169C39.3238 20.238 39.0175 19.9901 38.6871 19.7777L37.656 19.115C37.4605 18.9893 37.3052 18.8102 37.2086 18.5988L37.1979 18.5753C37.0875 18.3339 37.0647 18.0616 37.1334 17.8052L37.1745 17.6517Z"/><circle cx="24.273" cy="23.76" r="1.256" fill="#F0755B" transform="rotate(15 24.2726 23.7603)"/><ellipse cx="18.396" cy="23.052" fill="#3FA535" rx="1.256" ry=".419" transform="rotate(66.2823 18.3963 23.0522)"/><ellipse cx="23.278" cy="20.446" fill="#3FA535" rx="1.256" ry=".419" transform="rotate(128.154 23.2781 20.4463)"/><ellipse cx="20.491" cy="26.712" fill="#3FA535" rx="1.256" ry=".419" transform="rotate(163.035 20.4914 26.7123)"/><ellipse cx="32.39" cy="29.158" fill="#3FA535" rx="1.256" ry=".419" transform="rotate(163.035 32.3899 29.1576)"/><ellipse cx="35.162" cy="33.367" fill="#3FA535" rx="1.256" ry=".419" transform="rotate(93.9325 35.1624 33.3666)"/><ellipse cx="4.853" cy="50.245" fill="#3FA535" rx="1.256" ry=".419" transform="rotate(132.167 4.85281 50.2453)"/><ellipse cx="24.064" cy="36.762" fill="#3FA535" rx="1.256" ry=".419" transform="rotate(132.167 24.0637 36.7617)"/><ellipse cx="36.811" cy="39.297" fill="#3FA535" rx="1.256" ry=".419" transform="rotate(4.52258 36.8114 39.2971)"/><ellipse cx="5.487" cy="47.084" fill="#3FA535" rx="1.256" ry=".419" transform="rotate(162.701 5.48733 47.0845)"/><ellipse cx="24.698" cy="33.601" fill="#3FA535" rx="1.256" ry=".419" transform="rotate(162.701 24.6983 33.6009)"/><ellipse cx="33.921" cy="40.724" fill="#3FA535" rx="1.256" ry=".419" transform="rotate(35.0569 33.9212 40.7242)"/><ellipse cx="16.726" cy="44.034" fill="#3FA535" rx="1.256" ry=".419" transform="rotate(-174.02 16.7255 44.0339)"/><ellipse cx="24.76" cy="43.154" fill="#3FA535" rx="1.256" ry=".419" transform="rotate(144.622 24.7603 43.1539)"/><ellipse cx="13.716" cy="36.147" fill="#3FA535" rx="1.256" ry=".419" transform="rotate(-103.209 13.7162 36.1472)"/><ellipse cx="11.415" cy="33.181" fill="#3FA535" rx="1.256" ry=".419" transform="rotate(-151.069 11.4151 33.1807)"/><circle cx="15.688" cy="33.159" r="1.256" fill="#F0755B" transform="rotate(15 15.6876 33.1588)"/><circle cx="9.153" cy="41.373" r=".837" fill="#F0755B" transform="rotate(15 9.1534 41.3735)"/><circle cx="30.666" cy="33.06" r="1.256" fill="#F0755B" transform="rotate(158.382 30.6661 33.0597)"/><circle cx="39.322" cy="35.501" r=".536" fill="#F0755B" transform="rotate(158.382 39.3222 35.5012)"/><circle cx="20.227" cy="42.083" r=".536" fill="#F0755B" transform="rotate(158.382 20.2265 42.0834)"/><circle cx="19.39" cy="39.642" r=".536" fill="#F0755B" transform="rotate(8.58544 19.3902 39.6421)"/><circle cx="26.806" cy="24.006" r=".837" fill="#F0755B" transform="rotate(15 26.8057 24.0059)"/><circle cx="18.222" cy="33.404" r=".837" fill="#F0755B" transform="rotate(15 18.2218 33.4044)"/><circle cx="11.028" cy="41.659" r=".628" fill="#F0755B" transform="rotate(15 11.0279 41.6588)"/><circle cx="28.485" cy="34.374" r=".837" fill="#F0755B" transform="rotate(158.382 28.4847 34.3738)"/><circle cx="38.392" cy="36.062" r=".357" fill="#F0755B" transform="rotate(158.382 38.3919 36.0619)"/><circle cx="19.297" cy="42.644" r=".357" fill="#F0755B" transform="rotate(158.382 19.2971 42.6441)"/><circle cx="20.477" cy="39.626" r=".357" fill="#F0755B" transform="rotate(8.58544 20.4766 39.6256)"/><circle cx="25.672" cy="25.002" r=".419" fill="#F0755B" transform="rotate(15 25.6719 25.002)"/><circle cx="17.089" cy="34.401" r=".419" fill="#F0755B" transform="rotate(15 17.0889 34.4005)"/><circle cx="10.149" cy="42.507" r=".419" fill="#F0755B" transform="rotate(15 10.1495 42.5069)"/><circle cx="28.802" cy="32.898" r=".419" fill="#F0755B" transform="rotate(158.382 28.8015 32.8983)"/><circle cx="38.526" cy="35.432" r=".179" fill="#F0755B" transform="rotate(158.382 38.526 35.4323)"/><circle cx="19.431" cy="42.015" r=".179" fill="#F0755B" transform="rotate(158.382 19.4313 42.0146)"/><circle cx="20.043" cy="40.102" r=".179" fill="#F0755B" transform="rotate(8.58544 20.0425 40.1019)"/></svg>